<svg xmlns="http://www.w3.org/2000/svg" viewBox="0 0 100 100" fill="none" shape-rendering="auto" aria-hidden="true"><!-- Generated by DiceBear (https://www.dicebear.com) --><metadata xmlns:rdf="http://www.w3.org/1999/02/22-rdf-syntax-ns#" xmlns:xsi="http://www.w3.org/2001/XMLSchema-instance" xmlns:dc="http://purl.org/dc/elements/1.1/" xmlns:dcterms="http://purl.org/dc/terms/"><rdf:RDF><rdf:Description><dc:title>Gaze</dc:title><dc:creator>DiceBear</dc:creator><dc:source xsi:type="dcterms:URI">https://www.dicebear.com</dc:source><dcterms:license xsi:type="dcterms:URI">https://creativecommons.org/publicdomain/zero/1.0/</dcterms:license><dc:rights>“Gaze” (https://www.dicebear.com) by “DiceBear”, licensed under “CC0 1.0” (https://creativecommons.org/publicdomain/zero/1.0/)</dc:rights></rdf:Description></rdf:RDF></metadata><defs><g id="eyes-dots-a61f0ff2"><g class="dbga-eye"><circle cx="8" cy="8" r="5.4" fill="#0f172a"/></g></g><g id="spacing-far-a61f0ff2"><use transform="translate(6.5) translate(8, 8) scale(0.9275) translate(-8, -8)" href="#eyes-dots-a61f0ff2"/><use transform="translate(37.5) translate(8, 8) scale(0.9275) translate(-8, -8)" href="#eyes-dots-a61f0ff2"/></g><g id="shape-octagon-a61f0ff2"><path d="M40.76 17.83q9.24-3.83 18.48 0l6.98 2.89q9.24 3.82 13.06 13.06l2.89 6.98q3.83 9.24 0 18.48l-2.89 6.98q-3.82 9.24-13.06 13.06l-6.98 2.89Q50 86 40.76 82.17l-6.98-2.89q-9.24-3.82-13.06-13.06l-2.89-6.98Q14 50 17.83 40.76l2.89-6.98q3.82-9.24 13.06-13.06Z" fill="#d8b1fb"/><g class="dbga-look"><use transform="translate(20 45)" href="#spacing-far-a61f0ff2"/></g></g><g id="animation-none-a61f0ff2"></g><clipPath id="clip-a61f0ff2"><rect width="100" height="100" rx="0" ry="0"/></clipPath></defs><g clip-path="url(#clip-a61f0ff2)"><rect width="100" height="100" fill="#16161a"/><g class="dbga-hop"><use transform="rotate(-3.0353, 50, 50) translate(50, 50) scale(1.0093) translate(-50, -50)" href="#shape-octagon-a61f0ff2"/></g><use href="#animation-none-a61f0ff2"/></g></svg>
